<svg xmlns="http://www.w3.org/2000/svg" viewBox="0 0 400 400">
    <style>
        .title
        {
            text-align: center;
            font-size: 54px;
            font-family: Helvetica;
            font-weight: 800;
        }
        .small
        {
            font-family: Helvetica;
            font-weight: 800;
        }
    </style>
    <g>
		<g>
			<path style="stroke:#000;" stroke-width="6" fill="none" d="M264.475,174.823c1.241-2.983,1.929-6.255,1.929-9.688c0-9.566-5.322-17.889-13.167-22.169
				c-0.247-12.326-9.324-22.48-21.169-24.395c-4.622-5.857-11.778-9.621-19.818-9.621c-1.791,0-3.538,0.189-5.224,0.544
				c-4.623-5.196-11.357-8.474-18.86-8.474c-7.819,0-14.808,3.557-19.438,9.14c-2.436-0.783-5.031-1.21-7.728-1.21
				c-12.2,0-22.378,8.656-24.728,20.162c-11.24,2.55-19.635,12.594-19.635,24.606c0,2.801,0.463,5.492,1.305,8.01
				c-1.065,3.694-1.849,7.506-2.33,11.414c-3.193,4.227-5.089,9.489-5.089,15.196c0,6.356,2.355,12.158,6.232,16.596
				c-0.076,0.797-0.118,1.604-0.118,2.42c0,10.161,6.007,18.913,14.66,22.914c3.21,9.841,12.299,17.018,23.121,17.386
				c5.555,2.944,11.529,5.193,17.81,6.65c4.155,3.01,9.261,4.788,14.783,4.788c4.24,0,8.233-1.051,11.741-2.897
				c2.781,1.054,5.794,1.636,8.944,1.636c9.013,0,16.918-4.729,21.383-11.837c13.442-0.56,24.17-11.63,24.17-25.211
				c0-0.583-0.026-1.16-0.065-1.733c1.901-3.31,3.556-6.775,4.935-10.382c6.236-4.595,10.285-11.987,10.285-20.329
				C268.403,183.365,266.959,178.731,264.475,174.823z"/>
            <text x="34%" y="41%" class="small">s v e n s k a</text>
            <text x="32%" y="52%" class="title">SUS</text>
            <circle style="stroke:#000" cx="47%" cy="45%" r="100" fill="none" stroke-width="24"/>
            <circle style="stroke:#000" cx="47%" cy="45%" r="120" fill="none" stroke-width="4"/>
            
		</g>
	</g>
    
</svg>